<svg xmlns="http://www.w3.org/2000/svg" viewBox="0 0 89.29 112.25"><g id="Слой_2" data-name="Слой 2"><g id="Vector_Graphics" data-name="Vector Graphics"><path d="M89.26,68.57c-.09-1.44-.28-1.76-.42-1.87a.3.3,0,0,0-.24-.07.19.19,0,0,0-.12.07,2.61,2.61,0,0,0-.21,1,.45.45,0,0,0-.3.19l0,.06c-.26.35-.36,5.49-.39,7L73.38,64.75l-.06,1.1L57.12,54.91a52.74,52.74,0,0,0-6.79-19.08c.1-18.45-4.63-28.54-4.9-29.1,0-.48-.14-5.76-.22-6.31,0-.17-.07-.37-.21-.41a.2.2,0,0,0-.23.09.28.28,0,0,0,0,.06l0,0V6.81c-4.56,7.77-4.49,27.47-4.48,28.48C36,41.18,33.11,52.4,33,52.92l-.53.88L15.87,62.93l-.19-1.33L1.42,70.66l0-7.17-.13,0c-.14,0-.42,0-.43-.09l-.18-1.3-.14.07a.37.37,0,0,0-.17.14C-.13,63,0,65.62,0,65.73V80.36L1.4,81l.14-.93,15.08.68.06.48,16.23.86,0,.06,0,.07.06.06.08,0a2.09,2.09,0,0,1,1.64.19,1.67,1.67,0,0,1,.58,1.3c.17,2.66,3.48,12,3.89,13.18L35.7,98.59l0-2.69-14.1,9,0,0,.11,5.09,22.77.72,20.91,1.49h.12l.12-5.26L52.17,96.64l-.05,2.86L48.56,97a10.54,10.54,0,0,0,.85-3.38v-.07a.67.67,0,0,0,.72-.27l0-.07a2.31,2.31,0,0,0,.33-1.63.76.76,0,0,0-.18-.29l2-5.59a4.61,4.61,0,0,1,.75-1.37,2.92,2.92,0,0,1,2.26-1.17c10.94.42,31.8,1.27,32.36,1.45a.63.63,0,0,0,.82-.25s0-.06,0-.08C89.35,82.55,89.34,69.93,89.26,68.57Z"/></g></g></svg>