<svg xmlns="http://www.w3.org/2000/svg" viewBox="0 0 584.09 173.36"><g id="Слой_2" data-name="Слой 2"><g id="Vector_Graphics" data-name="Vector Graphics"><path d="M557.17,26.57s-79.37-4.72-81.59-2.42-9.4,6.18-11.48,6.22-34.43-8.79-34.43-8.79l-6.72.11-1-2.3-1.35-1.31.74-.76-1.32-2.64-2.55,0-14-11-139.84,5-.05-2.7s1.31-.18,1.62-.19S264.85,0,264.85,0l-2,0-1.12,2.18-3.39.22L256.6.76l-3.47.06,0,1.62-19.53.41,0-1.39-2.7.05-.29,1.24-9.91.44-1.94,2,.05,2.86L216,8.17,214.7,7,146.58,10.6c-5.24,1-5.17,4.72-5.17,4.72L87.63,18.1C80.72,34,72.27,35.46,72.27,35.46l-2.84,0,0,1.74-36.08.21L23.67,18.23l-.11-6.78-4-2.13-8.85.38L9.08,11.41,9.5,36l-2,0,0,2.38-1.27,0-.1.93L0,39.52.08,44l6.06-.11,0,1.85-5.48.06.06,3.55,9.57-.16s.78,0,.83,2.92,4.21,2.71,4.21,2.71L19.21,54l70.05-2.26v.87l4.61-.08,0-.66,49-2,0,1.77,36.72-.05s1.29-1.33,20.95-3.37,32.64,7.86,36.75,8.64,9.8-4.8,9.8-4.8,37.75-.65,36.54.61-.33,8-.33,8l.93,0c-16.64,56.5-52.72,78.13-52.72,78.13L256,173.36c71.71-51,71.82-112.66,71.82-112.66l1.62,0s-.25,8-.25,8.5,3.35,1.64,3.35,1.64l1.85,8.77,1.7-.34-.6-5.66L337,72.05l3.78-.07a11.71,11.71,0,0,0,4.4,4.25l29.78-1.13,4.86-4.71,7.65,4.19s22.19,24.18,21.39,31.6,4.16,8.74,4.16,8.74l15.29-.27c12.29-3.45,11.77-15.8,11.77-15.8S419.36,71.56,416,64.21s4-10.73,4-10.73l9.26-.16s130.2,45,141.51,47.31S584,99.48,584,99.48l.08-67.65C581.76,26.58,557.17,26.57,557.17,26.57ZM23.74,34.25l-9.27.16c-5.23-3.08.36-6.34.36-6.34l9-.23c.43.41,2.61-.82,2.67,2.88S23.74,34.25,23.74,34.25ZM372.84,74l-26.71.92-3.45-3.34L342.73,52l20.07-.35,0,1.32s11,6.6-3.27,16.5v.77l1.62,0s6.06-2.35,9.21-12.6l4.49-3.7,2.32.19.26,15.13Z"/></g></g></svg>