<svg width="574" height="571" viewBox="0 0 574 571" fill="none" xmlns="http://www.w3.org/2000/svg">
<path fill-rule="evenodd" clip-rule="evenodd" d="M309.617 87.4592C356.226 96.8629 404.55 43.8546 447.791 63.6292C490.405 83.1168 496.837 140.845 517.893 182.706C537.753 222.191 561.343 259.286 568.17 302.954C575.733 351.33 578.215 401.934 559.224 447.064C539.182 494.691 506.916 542.233 459.169 561.985C412.164 581.431 359.241 561.512 309.617 550.324C268.361 541.023 227.463 528.832 194.513 502.32C164.041 477.801 140.662 444.099 130.619 406.299C121.57 372.24 156.351 334.933 141.545 302.954C109.063 232.793 1.68823 201.503 0.0178135 124.206C-1.32358 62.1348 73.3559 7.84132 135.009 0.523532C200.693 -7.27262 244.779 74.3777 309.617 87.4592Z" fill="#456134"/>
</svg>
