<?xml version="1.0" encoding="utf-8"?>
<!-- Generator: Adobe Illustrator 21.0.0, SVG Export Plug-In . SVG Version: 6.00 Build 0)  -->
<svg version="1.1" id="Layer_1" xmlns="http://www.w3.org/2000/svg" xmlns:xlink="http://www.w3.org/1999/xlink" x="0px" y="0px"
	 viewBox="0 0 2272 1872" style="enable-background:new 0 0 2272 1872;" xml:space="preserve">
<style type="text/css">
	.st0{fill:none;}
	.st1{fill:url(#SVGID_1_);}
	.st2{clip-path:url(#SVGID_3_);fill:url(#SVGID_4_);}
	.st3{clip-path:url(#SVGID_3_);fill:#ADE589;}
	.st4{clip-path:url(#SVGID_3_);fill:#C8F7A9;}
	.st5{clip-path:url(#SVGID_3_);fill:#91C470;}
	.st6{clip-path:url(#SVGID_3_);fill:#3C5B28;}
	.st7{clip-path:url(#SVGID_3_);fill:#E4FFD2;}
	.st8{clip-path:url(#SVGID_3_);}
	.st9{fill:#628E46;}
	.st10{fill:#4E7534;}
	.st11{fill:#90C96B;}
	.st12{fill:#BDFF92;}
	.st13{fill:#3C5B28;}
	.st14{fill:none;stroke:#4E7534;stroke-miterlimit:10;}
	.st15{fill:#55773F;}
	.st16{fill:#425B31;}
	.st17{fill:#314921;}
	.st18{fill:#F4DC90;}
	.st19{fill:#DBC27D;}
	.st20{fill:#90C170;}
	.st21{fill:#E0A773;}
	.st22{fill:#42632C;}
	.st23{fill:#94C474;}
	.st24{fill:#ADE589;}
	.st25{clip-path:url(#SVGID_3_);fill:#4E7534;}
	.st26{clip-path:url(#SVGID_3_);fill:#628E46;}
</style>
<line class="st0" x1="4605.1" y1="413" x2="4792.9" y2="359.4"/>
<radialGradient id="SVGID_1_" cx="81.8214" cy="419.2561" r="21.8973" gradientUnits="userSpaceOnUse">
	<stop  offset="0" style="stop-color:#F9F98A"/>
	<stop  offset="1" style="stop-color:#F9F98A;stop-opacity:0"/>
</radialGradient>
<circle class="st1" cx="81.8" cy="419.3" r="21.9"/>
<g>
	<defs>
		<rect id="SVGID_2_" width="2272" height="1872"/>
	</defs>
	<clipPath id="SVGID_3_">
		<use xlink:href="#SVGID_2_"  style="overflow:visible;"/>
	</clipPath>
	<radialGradient id="SVGID_4_" cx="2165.0803" cy="242.9838" r="21.8973" gradientUnits="userSpaceOnUse">
		<stop  offset="0" style="stop-color:#F9F98A"/>
		<stop  offset="1" style="stop-color:#F9F98A;stop-opacity:0"/>
	</radialGradient>
	<circle class="st2" cx="2165.1" cy="243" r="21.9"/>
	<rect class="st3" width="2272" height="1872"/>
	<path class="st4" d="M2194,62c-85,52.1-119.7,162.8-204.1,215.9c-74,46.5-169.5,38.2-254.6,18.2c-51.9-12.2-103.9-28.3-157.2-26.5
		c-117.4,3.8-213,90.7-299.7,170.1c-51.9,47.5-109.7,95.9-172.8,124.9c19.9,8.7,44.8,11.2,66.3,8c120-18,211.1-119.8,327.3-154.9
		c17.2-5.2,35.8-8.8,52.9-3.2c14.5,4.8,26.1,15.7,39.8,22.5c77.7,38.6,160.5-67.1,246.3-54.4c21.6,3.2,41.3,13.9,62.2,20.3
		c88.6,27.5,187.3-22.2,276,5.1c39.6,12.2,72.2,39.1,95.6,73.3V33.3C2244.5,38.2,2218.2,47.2,2194,62z"/>
	<path class="st4" d="M355.6,238.2c14,15.3,26.6,32.3,43.6,44c42.6,29.3,99.7,18.4,150.5,9.1s111-13,146.3,24.8
		c25.2,27,30.8,69.2,59.5,92.4c20.6,16.6,48.7,19.8,73,30.2c91.1,39,120.1,173.1,216.7,195.5c-20.4,46.5-76.2,67-127,68.6
		c-120.6,3.9-228.7-68-342.9-107.2c-108.9-37.4-225.7-45.2-337.3-73.6c-60-15.3-118.5-36.6-174.3-63.5
		c-59.2-28.6-119.1-67.6-143-128.9c-46-118.1,63.1-150.7,148.2-171.1C170.4,134.2,283.8,159.8,355.6,238.2z"/>
	<path class="st5" d="M273.2,373.4c15.3,9.3,31.1,20.5,49,19.6c18.7-1,33.7-15.1,49-25.9c59.4-41.6,147.7-35.2,200.4,14.7
		c19.4,18.4,35.5,42.6,60.8,51.1c41.3,14,90.4-19.4,128.6,1.6c14.5,8,24.1,22.4,35.8,34.1c36,35.9,85.1,42.9,137.3,44.4
		c57.5,1.6,113.3,18.8,163.2,47.4c20.9,12,49.9,15.7,74.5,12.1c120-18,211.1-119.8,327.3-154.9c17.2-5.2,35.8-8.8,52.9-3.2
		c14.5,4.8,26.1,15.7,39.8,22.5c77.7,38.6,160.5-67.1,246.3-54.4c21.6,3.2,41.3,13.9,62.2,20.3c88.6,27.5,187.3-22.2,276,5.1
		c76.7,23.6,127.3,102.6,135.1,182.5c7.8,79.9-20.6,159.4-60.4,229.1c-12.5,22-26.5,43.8-32.2,68.4c-10.3,44.1,6.5,93.4-13,134.3
		c-22.3,46.8-81.1,61.6-132.6,67c-358.3,37.7-713.9-110.7-1073.7-93.6c-130.4,6.2-258.8,34-388.7,46.3
		c-129.9,12.2-265.7,7.8-384.1-47.1c-67.7-31.4-127.1-78-183.5-126.9c-38.6-33.5-76.7-69-102.2-113.2
		c-48.3-83.8-72.3-255.7-12.2-342C-0.5,310.9,178.8,315.6,273.2,373.4z"/>
	<path class="st3" d="M2092.7,878.2c-0.4-31.4-9.7-61.9-19-91.9c-9-29-18-58.1-26.9-87.1c-5.4-17.6-11.1-35.6-22.3-50.1
		c-27.4-35.4-80.2-40.1-123.5-28.5c-43.3,11.5-82.3,35.7-125.4,48s-95.6,9.6-124.8-24.4c-13.8-16-20.7-37.2-35.2-52.5
		c-21.7-22.9-57.1-28.6-87.9-21.8s-58.1,24.2-84.2,42.1c-22.9,15.8-55.1,32-76,13.5c-5.6-5-9.2-11.8-14.1-17.4
		c-20.1-22.9-58-20.7-83.8-4.4s-42.9,42.8-61.5,67c-18.6,24.2-41.4,47.9-71.2,54.2c-32.3,6.7-67.9-8.2-97.9,5.5
		c-16.6,7.6-28.4,22.9-37.5,38.7c-29.4,50.9-37.4,110.8-52.9,167.5c-6,21.9-13.7,44.2-23.9,64.8c24.9-2.5,49.8-4.5,74.7-5.7
		c342.7-16.3,681.6,117.5,1022.6,97.7c17.7-31.4,31.2-66.4,43.6-100C2079.4,956,2093.2,917.8,2092.7,878.2z"/>
	<path class="st6" d="M2272,228.8V0H0v165.3C205.8,139,1133.7,40.5,2272,228.8z"/>
	<path class="st7" d="M-69.4,481.8c33.1-12.8,67.2-25.2,102.7-25.9s73.2,12.2,93.6,41.2c30.1,42.9,23.9,116.9,74,132.3
		c50.2,15.4,113.4-49.4,149.2-11.1c23.5,25.1,5.1,72.3,29.8,96.2c12.3,12,31.1,13.4,48.3,14.2c58.3,2.7,116.5,5.3,174.8,8
		c31.5,1.4,73.2,13,72.2,44.6c-0.2,6.9-2.6,14.3,0.8,20.3c3.2,5.6,10.1,7.5,16.4,8.9c107.5,23.8,216.9,39.1,326.8,45.7
		c-97.8,30.2-202.3,38.3-303.6,23.6c-77.5-11.3-172.8-29.2-220.3,33c-21.1,27.7-26.9,66.5-53.5,89c-32.8,27.6-82,18.9-123.2,31.1
		c-57.8,17.2-97.1,75.7-155.8,89.4c-33.8,7.9-68.9-0.3-102.6-8.5c-84.4-20.5-176.6-46.1-225.4-118c-61.1-90-31.8-209.1-48.5-310.3
		C-233,570.7-177.6,523.5-69.4,481.8z"/>
	<path class="st7" d="M1485.2,645.2c40.3-32.7,73.5-76.6,122-95c9.9-3.7,24-4.5,27.9,5.3c2.8,7.1-2.2,14.8-2.7,22.5
		c-1,14.9,16.2,25.7,31,24.2s27.4-11.2,39.3-20.2c88.9-67.1,190.9-116.9,298.5-145.8c24.7-6.6,47.4,15.9,41.1,40.7v0
		c-4.8,18.6,11.8,35.7,30.5,31.6c185.9-40.3,377.7-53.8,567.4-40c2.7,0.2,5.4,0.8,8,1.8c16.2,6.7,12.2,25.2,7.1,39
		c-59,159.1-117.9,318.2-176.9,477.3c-10.8,29-23.8,60.6-51.4,74.5c-21.4,10.7-46.8,8.2-70.6,5.4c-230.5-27-461-54.1-691.5-81.1
		c-91.2-10.7-183.1-21.5-270.7-49c122.5-44.1,244.9-88.1,367.4-132.2c19.9-7.2,17.2-36.2-3.7-39.6l-20.4-3.3
		c-13.8-2.2-15.7-21.2-2.7-26.3c2.3-0.9,4.5-1.8,6.8-2.7c25.5-10.6,17.9-48.7-9.8-48.6c-47.3,0.2-94.6,9.5-138.4,27.3
		c-24,9.8-23.3,44.1,1,53.1l0,0c14.2,5.3,12.6,25.9-2.3,28.9c-29.6,5.8-60,8-90.1,6.4c-19.5-1-37.2-12.3-46.3-29.6
		c-3.4-6.5-9.1-12.2-15.6-15.5c-14.3-7.3-31.2-6.4-47.2-5.4c-77.6,4.9-155.1,9.8-232.7,14.8c53.2-5.3,107.5-43,161.4-52.4
		C1382.4,700.7,1436.4,684.8,1485.2,645.2z"/>
	<g class="st8">
		<path class="st9" d="M1.7,928.2V1872h2272v-856.7C1359.4,716.6,232.9,888,1.7,928.2z"/>
		<g>
			<path class="st10" d="M735.8,1027.6L626.5,1166c-11.6,14.7-28.7,24.2-47.3,26.3L94,1246.5v-70c0-56.7,40.5-105.3,96.3-115.6
				c133.6-24.6,375-67,519.6-80.9C735.7,977.5,751.9,1007.2,735.8,1027.6z"/>
			<g>
				<circle class="st11" cx="618.3" cy="1052.8" r="26.3"/>
				<circle class="st11" cx="510" cy="1062.7" r="21.6"/>
				<circle class="st11" cx="407.5" cy="1072.1" r="19.4"/>
				<circle class="st11" cx="308" cy="1084.3" r="16"/>
				<circle class="st11" cx="224.3" cy="1095" r="13.4"/>
				<circle class="st11" cx="147" cy="1108.4" r="13.4"/>
			</g>
			<g>
				<circle class="st11" cx="592.1" cy="1126.5" r="26.3"/>
				<circle class="st11" cx="483.8" cy="1136.5" r="21.6"/>
				<circle class="st11" cx="381.3" cy="1145.9" r="19.4"/>
				<circle class="st11" cx="281.7" cy="1158.1" r="16"/>
				<circle class="st11" cx="198" cy="1168.8" r="13.4"/>
				<circle class="st11" cx="120.7" cy="1182.2" r="13.4"/>
			</g>
		</g>
		<path class="st10" d="M886.7,954.4l60.7-85.3c25.9-36.4,67.8-58,112.4-58h268.3c44.5,0,86.3,21.5,112.2,57.6l61.3,85.6H886.7z"/>
		<path class="st10" d="M0,1285.7c0,0,1043.5-212.6,2272,52V1619H0"/>
		<g>
			<path class="st9" d="M802.2,1506H261c-39.1,0-70.8-31.7-70.8-70.8v0c0-39.1,31.7-70.8,70.8-70.8h541.3
				c39.1,0,70.8,31.7,70.8,70.8v0C873.1,1474.3,841.3,1506,802.2,1506z"/>
			<path class="st11" d="M812.2,1467.8H255c-16.3,0-29.4-13.2-29.4-29.4l0,0c0-16.3,13.2-29.4,29.4-29.4h557.2
				c16.3,0,29.4,13.2,29.4,29.4l0,0C841.6,1454.7,828.4,1467.8,812.2,1467.8z"/>
			<circle class="st12" cx="284.2" cy="1436.3" r="24.4"/>
			<circle class="st12" cx="383.2" cy="1436.3" r="24.4"/>
			<circle class="st12" cx="482.2" cy="1436.3" r="24.4"/>
			<circle class="st12" cx="581.2" cy="1436.3" r="24.4"/>
			<circle class="st12" cx="680.2" cy="1436.3" r="24.4"/>
			<circle class="st12" cx="779.2" cy="1436.3" r="24.4"/>
		</g>
		<polygon class="st10" points="1501.6,954.4 1705.3,1164 1472.9,1164 		"/>
		<polygon class="st10" points="886.7,954.4 683.1,1164 915.5,1164 		"/>
		<path class="st13" d="M834.8,1049.8l95.8,343.8c10.6,38,45.2,64.3,84.7,64.3h354c40.6,0,75.9-27.8,85.4-67.3l81.3-336.7
			c14.1-58.4-27.2-115.5-87-120.5c-118.4-9.8-315.7-20.6-525.7-7.6C861,929.8,818.1,989.8,834.8,1049.8z"/>
		<path class="st9" d="M1378.8,975.5H986.1c-35.2,0-62.3,31.1-57.5,66l41.7,301.2c4,28.7,28.5,50.1,57.5,50.1h313.6
			c29.3,0,54-21.8,57.6-50.9l37.4-301.2C1440.7,1006.1,1413.7,975.5,1378.8,975.5z"/>
		<line class="st14" x1="0" y1="1619" x2="0" y2="1285.7"/>
		<g>
			<path class="st9" d="M2201.2,1506h-541.3c-39.1,0-70.8-31.7-70.8-70.8v0c0-39.1,31.7-70.8,70.8-70.8h541.3
				c39.1,0,70.8,31.7,70.8,70.8v0C2272,1474.3,2240.3,1506,2201.2,1506z"/>
			<path class="st11" d="M2211.1,1467.8H1654c-16.3,0-29.4-13.2-29.4-29.4l0,0c0-16.3,13.2-29.4,29.4-29.4h557.2
				c16.3,0,29.4,13.2,29.4,29.4l0,0C2240.6,1454.7,2227.4,1467.8,2211.1,1467.8z"/>
			<circle class="st12" cx="1683.1" cy="1436.3" r="24.4"/>
			<circle class="st12" cx="1782.1" cy="1436.3" r="24.4"/>
			<circle class="st12" cx="1881.1" cy="1436.3" r="24.4"/>
			<circle class="st12" cx="1980.1" cy="1436.3" r="24.4"/>
			<circle class="st12" cx="2079.1" cy="1436.3" r="24.4"/>
			<circle class="st12" cx="2178.1" cy="1436.3" r="24.4"/>
		</g>
		<g>
			<g>
				<path class="st12" d="M1193.5,1331.4c-86,0-156-70-156-155.9c0-86,70-156,156-156c86,0,155.9,70,155.9,156
					C1349.4,1261.4,1279.5,1331.4,1193.5,1331.4z M1193.5,1033.5c-78.3,0-142,63.7-142,142s63.7,141.9,142,141.9
					s141.9-63.7,141.9-141.9S1271.8,1033.5,1193.5,1033.5z"/>
			</g>
			<g>
				<path class="st12" d="M1193.5,1278.9c-57,0-103.4-46.4-103.4-103.4c0-57,46.4-103.4,103.4-103.4c57,0,103.4,46.4,103.4,103.4
					C1296.9,1232.5,1250.5,1278.9,1193.5,1278.9z M1193.5,1086c-49.3,0-89.4,40.1-89.4,89.4c0,49.3,40.1,89.4,89.4,89.4
					c49.3,0,89.4-40.1,89.4-89.4C1282.9,1126.1,1242.8,1086,1193.5,1086z"/>
			</g>
			<g>
				<path class="st12" d="M1193.5,1238.2c-34.6,0-62.8-28.2-62.8-62.8c0-34.6,28.2-62.8,62.8-62.8s62.8,28.2,62.8,62.8
					C1256.3,1210.1,1228.1,1238.2,1193.5,1238.2z M1193.5,1126.7c-26.9,0-48.8,21.9-48.8,48.8c0,26.9,21.9,48.8,48.8,48.8
					s48.8-21.9,48.8-48.8C1242.3,1148.5,1220.4,1126.7,1193.5,1126.7z"/>
			</g>
		</g>
		<g>
			<path class="st10" d="M1630.2,1027.6l109.4,138.4c11.6,14.7,28.7,24.2,47.3,26.3l485.1,54.3V1079c0,0-407.9-79-615.9-99
				C1630.3,977.5,1614.1,1007.2,1630.2,1027.6z"/>
			<g>
				<circle class="st11" cx="1747.7" cy="1052.8" r="26.3"/>
				<circle class="st11" cx="1856" cy="1062.7" r="21.6"/>
				<circle class="st11" cx="1958.5" cy="1072.1" r="19.4"/>
				<circle class="st11" cx="2058" cy="1084.3" r="16"/>
				<circle class="st11" cx="2141.8" cy="1095" r="13.4"/>
				<circle class="st11" cx="2219.1" cy="1108.4" r="13.4"/>
			</g>
			<g>
				<circle class="st11" cx="1774" cy="1126.5" r="26.3"/>
				<circle class="st11" cx="1882.3" cy="1136.5" r="21.6"/>
				<circle class="st11" cx="1984.8" cy="1145.9" r="19.4"/>
				<circle class="st11" cx="2084.3" cy="1158.1" r="16"/>
				<circle class="st11" cx="2168" cy="1168.8" r="13.4"/>
				<circle class="st11" cx="2245.3" cy="1182.2" r="13.4"/>
			</g>
		</g>
		<path class="st11" d="M1575.4,871.3L1648,936l624,116.8v-98.4C2272,954.4,1938.8,837.8,1575.4,871.3z"/>
		<path class="st9" d="M1667.4,930l31.1-17.8c39.4-22.6,85-32.2,130.2-27.4c107.5,11.4,312.9,39.3,443.3,95.1v53.4L1667.4,930z"/>
		<path class="st15" d="M2219.1,1005.4l-249.3-51l-9.5-52.6c-50.3-7.7-96.3-13.2-131.6-17c-45.2-4.8-90.7,4.8-130.2,27.4l-31.1,17.8
			l311,53.1l-4.3-10.8L2219.1,1005.4z"/>
		<circle class="st11" cx="2042" cy="945.6" r="14.1"/>
		<circle class="st11" cx="2127.7" cy="961.7" r="14.1"/>
		<circle class="st11" cx="2084.3" cy="954.4" r="14.1"/>
		<path class="st16" d="M1824.4,892h-14.1c-5.6,0-10.1,4.5-10.1,10.1v14.1c0,5.6,4.5,10.1,10.1,10.1h14.1c5.6,0,10.1-4.5,10.1-10.1
			V902C1834.4,896.5,1829.9,892,1824.4,892z"/>
		<path class="st16" d="M1877.7,897.2h-14.1c-5.6,0-10.1,4.5-10.1,10.1v14.1c0,5.6,4.5,10.1,10.1,10.1h14.1
			c5.6,0,10.1-4.5,10.1-10.1v-14.1C1887.8,901.7,1883.3,897.2,1877.7,897.2z"/>
		<path class="st16" d="M1922.5,902.9h-14.1c-5.6,0-10.1,4.5-10.1,10.1V927c0,5.6,4.5,10.1,10.1,10.1h14.1c5.6,0,10.1-4.5,10.1-10.1
			v-14.1C1932.5,907.4,1928,902.9,1922.5,902.9z"/>
		<g>
			<path class="st13" d="M1419.2,1873.7h-450v-294c0-39.2,31.8-71,71-71h308.1c39.2,0,71,31.8,71,71V1873.7z"/>
			<path class="st17" d="M1341.6,1869h-297v-232.3c0-23.1,18.8-41.9,41.9-41.9h213.2c23.1,0,41.9,18.8,41.9,41.9V1869z"/>
			<rect x="1106.9" y="1651.9" class="st10" width="42.7" height="219"/>
			<rect x="1249.3" y="1651.9" class="st13" width="42.7" height="219"/>
			<g>
				<path class="st10" d="M1334.9,1614.2h-281.5c-20.8,0-37.7,16.9-37.7,37.7v0c0,20.8,16.9,37.7,37.7,37.7h281.5
					c20.8,0,37.7-16.9,37.7-37.7v0C1372.6,1631.1,1355.7,1614.2,1334.9,1614.2z"/>
				<path class="st9" d="M1222.9,1651.9L1222.9,1651.9c0-20.8-16.9-37.7-37.7-37.7h-131.8c-20.8,0-37.7,16.9-37.7,37.7v0
					c0,20.8,16.9,37.7,37.7,37.7h131.8C1206.1,1689.6,1222.9,1672.7,1222.9,1651.9z"/>
			</g>
		</g>
		<g>
			<path class="st13" d="M2007.1,1873.7h-450v-294c0-39.2,31.8-71,71-71h308.1c39.2,0,71,31.8,71,71V1873.7z"/>
			<path class="st17" d="M1929.5,1869h-297v-232.3c0-23.1,18.8-41.9,41.9-41.9h213.2c23.1,0,41.9,18.8,41.9,41.9V1869z"/>
			<rect x="1694.8" y="1651.9" class="st10" width="42.7" height="219"/>
			<rect x="1837.2" y="1651.9" class="st13" width="42.7" height="219"/>
			<g>
				<path class="st10" d="M1922.8,1614.2h-281.5c-20.8,0-37.7,16.9-37.7,37.7v0c0,20.8,16.9,37.7,37.7,37.7h281.5
					c20.8,0,37.7-16.9,37.7-37.7v0C1960.5,1631.1,1943.7,1614.2,1922.8,1614.2z"/>
				<path class="st9" d="M1810.9,1651.9L1810.9,1651.9c0-20.8-16.9-37.7-37.7-37.7h-131.8c-20.8,0-37.7,16.9-37.7,37.7v0
					c0,20.8,16.9,37.7,37.7,37.7h131.8C1794,1689.6,1810.9,1672.7,1810.9,1651.9z"/>
			</g>
		</g>
		<g>
			<path class="st13" d="M2074,1873.7h927.4v-781.2h-255.6C2151,1092.4,2074,1873.7,2074,1873.7z"/>
			<path class="st17" d="M3001.4,1364.4h-253.3c-366.4,0-429.8,507.6-429.8,507.6l683.1,1.7V1364.4z"/>
			<path class="st17" d="M2661.7,1314.7L2661.7,1314.7c26.3,6.2,52.6-10,58.8-36.3l103.6-436.6c6.2-26.3-10-52.6-36.3-58.8l0,0
				c-26.3-6.2-52.6,10-58.8,36.3l-103.6,436.6C2619.2,1282.2,2635.5,1308.5,2661.7,1314.7z"/>
			<path class="st17" d="M2573.7,975.5h427.7V646.7h-427.7c-41.7,0-75.5,33.8-75.5,75.5V900C2498.2,941.7,2532,975.5,2573.7,975.5z"
				/>
			<path class="st13" d="M2573.7,646.7h427.7v31.7h-371.2c-41.7,0-75.5,33.8-75.5,75.5v177.7c0,16.3,5.2,31.3,13.9,43.6
				c-39.3-2.7-70.3-35.4-70.3-75.3V722.3C2498.2,680.6,2532,646.7,2573.7,646.7z"/>
		</g>
		<g>
			<path class="st18" d="M1204.6,1540.6h-85c-71,0-128.6,57.6-128.6,128.6v182.6h342.3v-182.6
				C1333.3,1598.1,1275.7,1540.6,1204.6,1540.6z"/>
			<path class="st19" d="M1333.3,1669.2c0-56.8-36.8-104.9-87.8-122c14.1,55.2,41.9,195.5-4.1,304.6h91.9V1669.2z"/>
			<path class="st20" d="M1354.7,1873.7H969.6v-238.7h170.6c118.4,0,214.5,96,214.5,214.5V1873.7z"/>
			<g>
				<circle class="st21" cx="540.3" cy="658.3" r="75.9"/>
				<circle class="st21" cx="103.7" cy="658.3" r="75.9"/>
				<path class="st18" d="M534.2,1057H103.7V466c0-63.8,51.8-115.6,115.6-115.6h167.2c81.5,0,147.7,66.1,147.7,147.7V1057z"/>
				<polygon class="st13" points="91,661.3 251.6,811.1 380.6,811.1 533.8,634.7 				"/>
				<path class="st13" d="M490.9,582.4h86.6c6.7,0,12.2-8.3,12.2-18.5v0c0-8.6-3.8-16-9.3-18l-171.4-63v56.9L490.9,582.4z"/>
				<path class="st10" d="M381.9,291.7c-41.3-11.9-84.9-13.1-126.8-3.4c0,0-203.9,73.1-203.9,139.2v194c0,22,17.8,39.8,39.8,39.8
					h426.6c22,0,39.8-17.8,39.8-39.8v-194C557.4,361.3,381.9,291.7,381.9,291.7z"/>
				<path class="st22" d="M381.9,291.7c-21.2-6.1-43-9.4-64.8-9.8c0,0-141.6,4.7-116.2,379.4h316.7c22,0,39.8-17.8,39.8-39.8v-194
					C557.4,361.3,381.9,291.7,381.9,291.7z"/>
			</g>
			<rect x="59.9" y="936" class="st23" width="488.8" height="121"/>
			<path class="st24" d="M1083.2,1869.2H0v-842.8h569c206,0,419.5,176.7,419.5,382.7L1083.2,1869.2z"/>
			<path class="st23" d="M968,1869.2L884.7,1465c0-206-213.4-382.7-419.5-382.7H0v786.9H968z"/>
			<path class="st13" d="M927.4,1873.7H0v-781.2h255.6C850.5,1092.4,927.4,1873.7,927.4,1873.7z"/>
			<path class="st17" d="M0,1364.4h253.3c366.4,0,429.8,507.6,429.8,507.6L0,1873.7V1364.4z"/>
			<path class="st17" d="M339.7,1314.7L339.7,1314.7c-26.3,6.2-52.6-10-58.8-36.3L177.3,841.8c-6.2-26.3,10-52.6,36.3-58.8l0,0
				c26.3-6.2,52.6,10,58.8,36.3L376,1255.9C382.2,1282.2,365.9,1308.5,339.7,1314.7z"/>
			<path class="st17" d="M427.7,975.5H0V646.7h427.7c41.7,0,75.5,33.8,75.5,75.5V900C503.2,941.7,469.4,975.5,427.7,975.5z"/>
			<path class="st13" d="M427.7,646.7H0v31.7h371.2c41.7,0,75.5,33.8,75.5,75.5v177.7c0,16.3-5.2,31.3-13.9,43.6
				c39.3-2.7,70.3-35.4,70.3-75.3V722.3C503.2,680.6,469.4,646.7,427.7,646.7z"/>
		</g>
	</g>
	<path class="st25" d="M493.2,0l344.3,179.3c38.4,20,80.7,30.4,123.7,30.4h908c51.4,0,101.7-14.9,145.3-42.9L2273.7,0H493.2z"/>
	<path class="st26" d="M493.2,0l344.3,179.3c23.8,12.4,49.1,21.1,75.2,25.9L803.7,0H493.2z"/>
	<path class="st26" d="M2273.7,0h-285.8l-86.5,207.7c40-4.9,78.7-18.8,113.2-41L2273.7,0z"/>
	<path class="st25" d="M388.1,0l59,76.9c20.9,27.3,5.3,67.1-28.6,72.9L0,221.1V0H388.1z"/>
	<g class="st8">
		<path class="st9" d="M1004.9,38.2h-27.2c-7.8,0-14.2,6.3-14.2,14.2v27.2c0,7.8,6.3,14.2,14.2,14.2h27.2c7.8,0,14.2-6.3,14.2-14.2
			V52.3C1019,44.5,1012.7,38.2,1004.9,38.2z"/>
		<path class="st9" d="M1099.8,38.2h-27.2c-7.8,0-14.2,6.3-14.2,14.2v27.2c0,7.8,6.3,14.2,14.2,14.2h27.2c7.8,0,14.2-6.3,14.2-14.2
			V52.3C1114,44.5,1107.6,38.2,1099.8,38.2z"/>
		<path class="st9" d="M1194.8,38.2h-27.2c-7.8,0-14.2,6.3-14.2,14.2v27.2c0,7.8,6.3,14.2,14.2,14.2h27.2c7.8,0,14.2-6.3,14.2-14.2
			V52.3C1208.9,44.5,1202.6,38.2,1194.8,38.2z"/>
		<path class="st9" d="M1004.9,109.1h-27.2c-7.8,0-14.2,6.3-14.2,14.2v27.2c0,7.8,6.3,14.2,14.2,14.2h27.2c7.8,0,14.2-6.3,14.2-14.2
			v-27.2C1019,115.4,1012.7,109.1,1004.9,109.1z"/>
		<path class="st9" d="M1099.8,109.1h-27.2c-7.8,0-14.2,6.3-14.2,14.2v27.2c0,7.8,6.3,14.2,14.2,14.2h27.2c7.8,0,14.2-6.3,14.2-14.2
			v-27.2C1114,115.4,1107.6,109.1,1099.8,109.1z"/>
		<path class="st9" d="M1194.8,109.1h-27.2c-7.8,0-14.2,6.3-14.2,14.2v27.2c0,7.8,6.3,14.2,14.2,14.2h27.2c7.8,0,14.2-6.3,14.2-14.2
			v-27.2C1208.9,115.4,1202.6,109.1,1194.8,109.1z"/>
		<path class="st9" d="M1280.3,38.2h-27.2c-7.8,0-14.2,6.3-14.2,14.2v27.2c0,7.8,6.3,14.2,14.2,14.2h27.2c7.8,0,14.2-6.3,14.2-14.2
			V52.3C1294.5,44.5,1288.1,38.2,1280.3,38.2z"/>
		<path class="st9" d="M1375.2,38.2h-27.2c-7.8,0-14.2,6.3-14.2,14.2v27.2c0,7.8,6.3,14.2,14.2,14.2h27.2c7.8,0,14.2-6.3,14.2-14.2
			V52.3C1389.4,44.5,1383.1,38.2,1375.2,38.2z"/>
		<path class="st9" d="M1470.2,38.2H1443c-7.8,0-14.2,6.3-14.2,14.2v27.2c0,7.8,6.3,14.2,14.2,14.2h27.2c7.8,0,14.2-6.3,14.2-14.2
			V52.3C1484.4,44.5,1478,38.2,1470.2,38.2z"/>
		<path class="st9" d="M1280.3,109.1h-27.2c-7.8,0-14.2,6.3-14.2,14.2v27.2c0,7.8,6.3,14.2,14.2,14.2h27.2c7.8,0,14.2-6.3,14.2-14.2
			v-27.2C1294.5,115.4,1288.1,109.1,1280.3,109.1z"/>
		<path class="st9" d="M1375.2,109.1h-27.2c-7.8,0-14.2,6.3-14.2,14.2v27.2c0,7.8,6.3,14.2,14.2,14.2h27.2c7.8,0,14.2-6.3,14.2-14.2
			v-27.2C1389.4,115.4,1383.1,109.1,1375.2,109.1z"/>
		<path class="st9" d="M1470.2,109.1H1443c-7.8,0-14.2,6.3-14.2,14.2v27.2c0,7.8,6.3,14.2,14.2,14.2h27.2c7.8,0,14.2-6.3,14.2-14.2
			v-27.2C1484.4,115.4,1478,109.1,1470.2,109.1z"/>
		<path class="st9" d="M1555.7,38.2h-27.2c-7.8,0-14.2,6.3-14.2,14.2v27.2c0,7.8,6.3,14.2,14.2,14.2h27.2c7.8,0,14.2-6.3,14.2-14.2
			V52.3C1569.9,44.5,1563.5,38.2,1555.7,38.2z"/>
		<path class="st9" d="M1650.7,38.2h-27.2c-7.8,0-14.2,6.3-14.2,14.2v27.2c0,7.8,6.3,14.2,14.2,14.2h27.2c7.8,0,14.2-6.3,14.2-14.2
			V52.3C1664.8,44.5,1658.5,38.2,1650.7,38.2z"/>
		<path class="st9" d="M1555.7,109.1h-27.2c-7.8,0-14.2,6.3-14.2,14.2v27.2c0,7.8,6.3,14.2,14.2,14.2h27.2c7.8,0,14.2-6.3,14.2-14.2
			v-27.2C1569.9,115.4,1563.5,109.1,1555.7,109.1z"/>
		<path class="st9" d="M1650.7,109.1h-27.2c-7.8,0-14.2,6.3-14.2,14.2v27.2c0,7.8,6.3,14.2,14.2,14.2h27.2c7.8,0,14.2-6.3,14.2-14.2
			v-27.2C1664.8,115.4,1658.5,109.1,1650.7,109.1z"/>
	</g>
	<g class="st8">
		<circle class="st12" cx="1720.3" cy="65.1" r="17.2"/>
		<circle class="st12" cx="1785" cy="65.1" r="17.2"/>
		<circle class="st12" cx="1720.3" cy="136.8" r="17.2"/>
		<circle class="st12" cx="1785" cy="136.8" r="17.2"/>
	</g>
</g>
</svg>
