<svg xmlns="http://www.w3.org/2000/svg" viewBox="0 0 178.58 112.25"><g id="Слой_2" data-name="Слой 2"><g id="Vector_Graphics" data-name="Vector Graphics"><path d="M105.82,25.83s1.54-.28,1.54-.55h1.28V25l.77-.25.5-.27h1l9.48-.54,58.16-5.11V18l-67.64,4.84-.25-.27h-.78l-.76-.27-.51-.25h-.77l-.26.25-1-.25-.5-.54-.26.27.26.52-1.28-.25-.26.52-1.8-.27.26-.52h-.52v.52l-3.07-.25.26-.54h-.51v.79l-.52-.25-.25-.54-1-.27a.93.93,0,0,0-1.27,0,3.26,3.26,0,0,0-1,1.06l-.5-.25h0l-.26-.27H94l.26-1.09h.26L94.8,18h.51v-.54s.52-.27.26-.52V15.87a10,10,0,0,0,1.54-.54c.25-.54-.78-.81-1-.81l.24-.25V14h.78l.25-.82.51.27V12.37S105,12.1,104,6.45,88.9,1.88,83.78,2.15s-6.15,9.68,3.59,9.68l1.79.27v.27h-.51l-.25.54c.25,0,.25,1.09.25,1.09l-1.28-.28v.55h.51s-.26.79.77.52l-.25,1.08-.26.27V17h.26v.52h.25l.25.27v2.42l-.25.81-1.28-.27-2.31-.81H84.3v.27L40.48,1.08,33.31,0,40,1.88,71.48,18.57l11,3,.52.54H80.71L81,21.8l-.52-.27v.79l-1.8-.25h0l-1.28-.27v-.27h-.25v.54h-.77l-.77-.54-1,.27c0,.27-.77,0-1,0,0,.27-.51.27-.51.27h-.51a.92.92,0,0,0-.51.25L0,16.69,1,18l59.45,6.2,13.32.27,1.54.79c.51,0,2.82.55,2.82.27h.26l4.61.82-.26.27c.26.27,1.79,3,1.79,3v1.06s-.77.55-.51.55a5.41,5.41,0,0,1,1,.27l2.82.27.26.27c-.26.27-1.54,0-1.54,0l-.76.79.5.55-.25.27-.77.27-3.59,3L81,34.44l-1.28.81v.8l-.52-.27-1.8.54V39l2.06.54-1,3.5-5.9-.27V40.89h-.25l.25-1.07s.26,0,0-.54c-.25-.27-.77.54-.25.54v.81l-.26.26-.26,1.89s-4.1-.27-4.36-.27c-.25.27-2,.27-6.15,4h-.5a2.26,2.26,0,0,0-1-1.88,37.79,37.79,0,0,0-5.12-.27h-.26l-1.8-.54.78-.27v-.26a5.9,5.9,0,0,0-1,.26l.26-13.19h-.26V24.22H52v6.17h-.26V43.85l-.78.54-1.79-.27v-.54l-.51.27-.77.54s-1,1.08.26,1.61c0,0,1.28.27,1-1.34l1.79.27.52.27h0s-2.31,1.07-2.31,1.34v.27L47.4,47.89s-.51,1.07,0,1.34a3,3,0,0,0,1.54.54v1.61l.51,5.13s-1.79.25-1.79,0a.88.88,0,0,0-.51.25h-.77V57h.51l-.77.81h-.77v.28l.77.27a11,11,0,0,0-1.79,4.29l1.28.28v1.87l3.07.55v.81l-.25.27-5.38,5.65a4,4,0,0,0,.76,4.57,4.23,4.23,0,0,0,4.62.54l2-2.17.5,8.89-.5.81L25.87,83.67a3.2,3.2,0,0,0-3.07,2.69,2.21,2.21,0,0,0,1.54.54c.77.27,26.14,2.15,26.14,2.15v.54l-.52.82-.26.27-1.27,1.87s-1.28,3.24,1,5.11l-.51,3.24-.26.27.26.52v.54l-.26.82s-.51.27-.51.54l.77.52v.81l-.26.28-.51.81-.26,1.06v1.63l-.25.52s-.26.54.51.54c0,0,0,2.15.77,2.42.51,0,1.28.28,1.79-.27.25-.79.51-1.87.51-1.87v-.28h.52a.85.85,0,0,0-.26-.54.25.25,0,0,1,.26-.25h0l.26-.81h-.26L52,106.8a1.74,1.74,0,0,0-.78-1.33l.26-1.36,2.3-2.94v.25l.52-1.06L55.09,99l1.54-1.06.25-.28s1,1.07,1.28,1.07c.26.27,0,1.9,0,1.9h.51v-1.9a1.32,1.32,0,0,0,.78-.25c.5-.27-.78-1.09-.78-1.09v-.81s1,0,1.28-.79l.26-.28,1.28.53-.26,1.35h.52V96.31l1,1.08,2.31-2.15,1.79-2.69L66.36,92l3.08-1.33H70l-.25,2.69c.25.25.5.25.5,0a11.57,11.57,0,0,0,.26-2.69s3.07.25,3.59.25c0,0,.51,1.62,1.28,1.89a5.27,5.27,0,0,1,1.54.28,2.77,2.77,0,0,0,1.78-1.36c.52-1.33.26-1.61.26-1.61l1.28-.54v1.34l-1.28.81-.26.27.26.27L81,91.2V88.51l3.84.81.77-2.69.76.27s1,.27,1-.54l-2.05-2.15.77-.54,6.15.54,1.53-1.35,4.36.54a.26.26,0,0,0,.26.27.25.25,0,0,0,.25-.27,6.33,6.33,0,0,0,1.8-.54h1a6.36,6.36,0,0,0,2.82-2.15l.26-.8.26-.54h.76s0,.54.26.54.51-.27.26-1.08l.25-.81,2-1.34v7.53l-.26.27V85l.52,1.88-.26,1.88-.51-.27a5.57,5.57,0,0,0-1,.27s-.26.54,0,.54,1.28,0,1.28.27a.79.79,0,0,0,.52.27l.25,1.07v.54l.52.54s-.26,3.5,2.3,3.78c2.3.25,3.08-3.24,3.08-3.51,0,0,1.28-7.26-1.28-8.61a2.38,2.38,0,0,0-2.06,0V83.4l1.28-.27H113l1,.27v.27h.52l.26-.54,1-1.34,1.54.27-1,.8v1.08l.26.81-.26,1.34a1.89,1.89,0,0,0,1.28,1.62,2.48,2.48,0,0,0,1.28-.54s.52.54.78.54a19.34,19.34,0,0,0,2-1.62,5.55,5.55,0,0,1-.26-1.34c0-.27,1-1.35,1-1.35l1.79-1.61s.77,1.88,2,2.15a11.08,11.08,0,0,0,2.06.27s1.53-.27,3.84-3.23a41.81,41.81,0,0,1,6.66-6.18c.25,0,2-4-1-6.19a5.52,5.52,0,0,0-2.82-.27s-.76-3.24-.76-3.51c-.26,0,.26-1.33.26-1.33l-12.3-1.63V57a.26.26,0,0,0-.26-.27,8.29,8.29,0,0,0-2-.52l.25-.54h.52l.26-.28h.26v-.27h-.26l.26-.27h1v-.27l-1-.27s.24-.27-.26-.52v-.55l-.78-.27-.25.55a1,1,0,0,0-.25.52,18,18,0,0,1-.52,1.9h-.26v.27L117.35,56l.51-2.7s.51-.54.51-.81.26-1.88.26-1.88-.26-1.08-1-1.35a7.26,7.26,0,0,1-1.28-1.07l-3.84-8.88-.25.54-4.11-3.77-.51.27-1-1.34-2.82-.27.52-2.42H104l-.5.79L102,34.17l-.78-.27-1.28-.82-3.83-.79h-.26l2,.27s.77-.27.77-.54a1.92,1.92,0,0,0-.77-.81l.26-.82,1.54-1.06v-.54l.25-.27V28l-.25-.27,1-.52,12.82,1.88,26.64,2.42,10.5,1.08-10-2.42L104,25.83l.26-.28ZM84.3,28,84,27.45v-.27h.51ZM50,106.55a1.29,1.29,0,0,0-1.28.79h-.25l.25-.79a.91.91,0,0,1,.77-.54H50Zm0-5.65h0v-.27h.26Zm.52-1.09-.26.55-.26-.28v-.27h0l.26-1.08a.26.26,0,0,1,.26.27l-.26.81Zm.76,7.53-.26-.27v-.52l.26.25Zm.78-6.71h-.26l-.26.54-.52.52h-.5l.5-1.88v.27l.26-.81,1.8.27Zm6.14-2.42s0,.27-.51-.27c-.51-.28-.26-.55-.26-.55s.52-.27.77,0C58.42,97.94,58.16,98.21,58.16,98.21Zm.51-.27.26.27v.27h-.51Zm3.08-30.69-.52.27L61,68.61l-.51.27H59.7v.27l.51.27-.51.52-1.28.82-.26,1.08-.77.79.26.82,1,.27,1.54-1.88,1.28.27-.26,2.15-.5.54h-.52v.25h.26c0,.28-.26,1.63-.77,1.36a1.47,1.47,0,0,0-1,.27v.54l-1,.27-1-8.34a5.53,5.53,0,0,1,.76-1.63,6.09,6.09,0,0,0,0-3.21l1.28.52c0,1.36.26,1.09.26,1.09.26.54,3.08.81,3.08.81Zm.76,5.66.26-.8h.77Zm58.43,3.77,4.61-4.84c1-1.9-.77-1.08-.77-1.08l-1,.81v-.81l-1.28-.27v-.28l-1.27-.27v-.27c.5.27.24-.52.76-.52s4.87.27,4.87.27l.25,1.61,1.79.54h.52l1,.27v.52l-.51.55-.25-.28v.82L125,78l.26-1.34c0-.54-1-.27-1-.27l-1.53,1.34-1.79-.53Zm-2.82-.27h.76l-1,1.08Zm.76,2.42h2.32l-.78.54v.81l-.76.53h-1.8v-.8ZM93,28.79l.51.27-.25,1.08H93ZM89.16,28l.77-.27-.25,2.17h-.52Zm-3.84,2.42-.51.27V29.6l.51.54Zm2.56-.25-2.3.25.26-.79-1-.81.25-1.61,1.28.27.52.52.26.28L88.9,28l-.25,1.9h-.51Zm2.05,18.3-.51.25s.51-1.61-1.54-2.15l-.26-.27,1.28-6.72,2.31-2.15.26-1.35L93,35.5l-.26,1.63H93a12.05,12.05,0,0,0-1.54,4.57s-.51.81-.77,1.35-.51,1.61,0,1.88Zm21.26,31.2-.25-.81h-.51l.26-3s1,3.23,1,3.5l-.52.27Zm.26,3.22v-.53h2.06Zm2.06-.8-2.06-.27.26-1.61,1,1.07h1A1.24,1.24,0,0,1,113.51,82.06Zm3.07-10.49-.26,1.34-.51.27h-.51l-.26.27h.51l-.76.81-1.28.54v1.34l-.78.54v1.07h1l1.79-1.61,1,.27-.26,2.42h-.77v.27l.26.27c-.77,2.42-3.08,1.07-3.08,1.07l-1.79-4.84Zm-3.07-27.45-2.57.81-.25.54L99.16,44.39l.25-4,12.56.8Zm-8-8.62,5.89,5.13-12-1.08-2-4.57Zm-8.45,6.2V46l-.78,3.77L95.05,50l-.25,1.09h-1l-2.56-4.05,1.54-5.38,2-4.84Zm0-10.49s.25-.55.51-.55v.55Zm.51-1.61v.27l-.77.52-.26.55-2-.28V29.33h-.26l-.26.81h-.26L94,29.06l.26-.27,3.58-.27-.25,1.08Zm.51-.54v-.54a.86.86,0,0,1,.51.27C98.64,29.06,98.13,29.06,98.13,29.06Z"/></g></g></svg>