<svg xmlns="http://www.w3.org/2000/svg" viewBox="0 0 89.29 112.25"><g id="Слой_2" data-name="Слой 2"><g id="Vector_Graphics" data-name="Vector Graphics"><path d="M0,106.92v5.33l68.06-.51v-3.43l-.57-.06L64.2,96.35H62.74l-.51,1H62l-.1-.47H60.41L58,106.47H52.32l-.1-2.56h-1l-.18-1.76h-.72l-.12,1.74H48.94v-1.82H48l-.16,2.52h-.19v-.7h-1V102l-.92.06-.1,2.48h-.39v-.77h-.92l-.06-1.75-.85,0-.25,2.58H43v-.85h-.82l-.2-1.84-.8.13L41,106.47h-3l-.65-.67.06-.72,1.25-1.31.52,0,.19-.89-1-.13-2.39-1.29s6.18-4.25,6.3-4.25V94.89l0,0,1.5-1.41,2.1-1.37,7.34-4.38v.37h.17l1.85-1.92,2.08-1.56L57,84.38l-2.23,1.17h-.33l-2,.64v.35l-1.8,1-.74.25v.51L45.25,91l-4.58,1.4L38,94.73l-.14.43-.38.39L38,96l-2.72,1.44L35.12,97l3.48-3.22L41,91.87l4.05-3.56.55.34H46l0-.43L45.79,88v-.22l2.6-2.27s.14-2-1.61-1.27a6.23,6.23,0,0,0-.94.42h-.25l-.42.14,12.38-11.1h.31l.31-.31-.74-.76,6.25-5.74.36.37,8.68-9.66h-.15L62.05,62.84v.54L34.2,80.05l2,3.43L30.44,86.4l.27.28-1,.63L30,88.59l-.64.88L28.61,84,46.38,61.11l1.55,2.16,1.35-3.94.85.26L51.94,53,81,15.79l4,2.19L85.6,9.5l0-2S89.11.83,89.27.38,88.78,0,88.78,0L81.35,6.29s-1.29-.18-1.29-.39S72.6,8.44,72.6,8.44l3.18,3L46.75,46l-8.11,4.1,2.2,3L21.93,76.39,12.39,76,2,87.91l3.79,3.28-.15.15.46.47L6,92l-.21.39,3,5.29v.3l-5.64,0-1.41,9ZM44.68,85.2l.33-.28-.13.68Zm-3.34,3,1.42-1.27.37-.06.15.16L41.82,88.2Zm-7.63,5.34L39.53,89l-1.68-1.74-.26.2V87l.58-.6,2.39,2.48.27-.25,0,.24-6.94,5.55ZM10.21,95,8.27,93.32l2,1.7Z"/></g></g></svg>