<svg xmlns="http://www.w3.org/2000/svg" viewBox="0 0 178.58 112.25"><g id="Слой_2" data-name="Слой 2"><g id="Vector_Graphics" data-name="Vector Graphics"><path d="M176.42,56.86l.21-.64,1.44.1.2-1-9.53-2-.31-4.43a16.61,16.61,0,0,0-4.38-3.23,11.67,11.67,0,0,0-5-.3,18.8,18.8,0,0,0-3.77,2.79L155,49.4l-6.39-7.76-.31-1.39,6.33-2.39v-.4l-16.07-.69-1.7,1,0-1.34-5.83-.4-4.53-.3-2.88.55-.26.55-3.3-.35v-.45l-3.09-.45,0,.45-1.91.15v-.55l-2.78-1-3.81-.2-.57.3-.62.2s-2.88-1.1-9.27-.35l-.52-.05-.1-1.34a6.13,6.13,0,0,0-4.59-1.9S92.13,31,92,32.49l-3.09,2.73-.26,1.15-.87-.6s.67-2.24-1.55-1.79l-1.44-.74V26.72l2.16-3v-.95l0-.22,3.37-.78-.15-.52-3.2.4-1.7-.2-.1-3.22,13-3.2s3.45.13,3.41-1.28a1.11,1.11,0,0,0-.89-1.23c-1.06-.35-2.38.89-2.38.89L85.52,16.2,86.27,0l-1.1,0L84.3,16.31l-5.13,1.32-1-.9s-5.87-.6-6.3-.6-.93-2.62-5.14-1.31l-5.44.24a19.87,19.87,0,0,0-3.4-1.55,4,4,0,0,0-3.15.83l-5-.18S42.14,19,48.69,31.65L48.2,33.8s-1.24.36-1.43,1-1.79.47-1.79.47-1.61,2.09-1.61,2.87,1.92.36,1.92.36v1.55c0,.24,1.67.6,1.67.6l-.12.42-6.19.41-.2-.8L36,40.65l-.25,1-1.14,0V41H33.8v.79L30.14,42s-3.3-.6-5.05.4l-.52.3-.15-.8h-.56l-.31.7-1.09,0-3.65-.1-.11.4L15,43v.84l-.87.05v.35l-1.8.25v-1s-1.5-.49-1.81.25,0,.75,0,.75L7.16,46.91l-.2,1L5.31,49.6l-.26-.4H4.23l-.42,1.69L2,53.58l-.26.85L1.8,56,0,58.6l.82,2.34,3.35.1s-8,6.62-.2,11.44l.1.6,1.75.15a13.39,13.39,0,0,0-.56,2.34c0,.59-.06,1.24-.06,1.24s-3,2.83-.15,5.42c0,0-1.19,16.17,7.26,17.71,0,0,13.45,3.73,13.25-13.23l1.75,2s1.18,23.18,19.11,15.12c0,0,4.23-3.09,6.29-11.94l3.52-.12L56.67,93l.12,1.79-.12.71.49,2,.81.54-.07,1.07.37,1.73.75.42v1.5l1.23,2.62,1.24.24.25,1.37s1.11,2.15,1.73,2.33a22.15,22.15,0,0,0,10.65,2.88c3.55-.15,12.75-.52,13.52-15.89,0,0,2.91-.78,3.22-.78s1.42-.89,1.42-.89l3.59-.54s1,6.33,9.95,7.64,12.24-6.92,12.74-8.42l10.2-.29.15.54s.67-.1.67.3a1.45,1.45,0,0,1-.36.8l.83,2.24.82.29-.26.9,1,1.89h.78l-.11.6,1.65,1.94s3.81,3.73,11.29,3.23a18,18,0,0,0,12.36-6.37A16.26,16.26,0,0,0,159,97l-.37-.84.93-1,.62-2.13-.77-.9,1.28-1.09.16-2.34-.77-.35-.06-.85,1.7-.29,3.61-3.59,13.24-26.06Z"/></g></g></svg>